<svg width="64" height="114" viewBox="0 0 65 114" fill="none" xmlns="http://www.w3.org/2000/svg">
<g filter="url(#filter0_d_8177_42)">
<path d="M28.9258 22.792C31.7418 22.792 34.0458 23.2187 35.8378 24.072C37.6724 24.8827 39.2938 25.8427 40.7018 26.952C41.5551 27.592 42.1951 27.6773 42.6218 27.208C43.0911 26.696 43.4111 25.5227 43.5818 23.688H45.0538C44.9684 25.3093 44.9044 27.2933 44.8618 29.64C44.8191 31.9867 44.7978 35.08 44.7978 38.92H43.3258C43.0698 37 42.7924 35.4 42.4938 34.12C42.1951 32.7973 41.7684 31.6667 41.2138 30.728C40.7018 29.7893 39.9764 28.8933 39.0378 28.04C37.8858 26.76 36.4991 25.8213 34.8778 25.224C33.2991 24.584 31.6351 24.264 29.8858 24.264C27.6671 24.264 25.7258 24.8613 24.0618 26.056C22.4404 27.208 21.0751 28.808 19.9658 30.856C18.8991 32.8613 18.0884 35.208 17.5338 37.896C17.0218 40.584 16.7658 43.4427 16.7658 46.472C16.7658 49.5867 17.0431 52.488 17.5978 55.176C18.1951 57.8213 19.0484 60.1467 20.1578 62.152C21.3098 64.1147 22.7178 65.6507 24.3818 66.76C26.0884 67.8693 28.0511 68.424 30.2698 68.424C31.8484 68.424 33.4698 68.1253 35.1338 67.528C36.7978 66.9307 38.1631 66.0133 39.2298 64.776C40.6378 63.496 41.5978 61.9813 42.1098 60.232C42.6218 58.44 43.0271 56.072 43.3258 53.128H44.7978C44.7978 57.1387 44.8191 60.3813 44.8618 62.856C44.9044 65.288 44.9684 67.336 45.0538 69H43.5818C43.4111 67.1653 43.1124 66.0133 42.6858 65.544C42.3018 65.0747 41.6404 65.1387 40.7018 65.736C39.1231 66.8453 37.4378 67.8267 35.6458 68.68C33.8964 69.4907 31.6351 69.896 28.8618 69.896C24.5098 69.896 20.6911 68.9787 17.4058 67.144C14.1204 65.3093 11.5604 62.664 9.72575 59.208C7.93375 55.752 7.03775 51.592 7.03775 46.728C7.03775 41.9493 7.97642 37.768 9.85375 34.184C11.7311 30.6 14.3124 27.8053 17.5978 25.8C20.8831 23.7947 24.6591 22.792 28.9258 22.792Z" fill="black"/>
<path d="M40.9258 43.792C43.7418 43.792 46.0458 44.2187 47.8378 45.072C49.6724 45.8827 51.2938 46.8427 52.7018 47.952C53.5551 48.592 54.1951 48.6773 54.6218 48.208C55.0911 47.696 55.4111 46.5227 55.5818 44.688H57.0538C56.9684 46.3093 56.9044 48.2933 56.8618 50.64C56.8191 52.9867 56.7978 56.08 56.7978 59.92H55.3258C55.0698 58 54.7924 56.4 54.4938 55.12C54.1951 53.7973 53.7684 52.6667 53.2138 51.728C52.7018 50.7893 51.9764 49.8933 51.0378 49.04C49.8858 47.76 48.4991 46.8213 46.8778 46.224C45.2991 45.584 43.6351 45.264 41.8858 45.264C39.6671 45.264 37.7258 45.8613 36.0618 47.056C34.4404 48.208 33.0751 49.808 31.9658 51.856C30.8991 53.8613 30.0884 56.208 29.5338 58.896C29.0218 61.584 28.7658 64.4427 28.7658 67.472C28.7658 70.5867 29.0431 73.488 29.5978 76.176C30.1951 78.8213 31.0484 81.1467 32.1578 83.152C33.3098 85.1147 34.7178 86.6507 36.3818 87.76C38.0884 88.8693 40.0511 89.424 42.2698 89.424C43.8484 89.424 45.4698 89.1253 47.1338 88.528C48.7978 87.9307 50.1631 87.0133 51.2298 85.776C52.6378 84.496 53.5978 82.9813 54.1098 81.232C54.6218 79.44 55.0271 77.072 55.3258 74.128H56.7978C56.7978 78.1387 56.8191 81.3813 56.8618 83.856C56.9044 86.288 56.9684 88.336 57.0538 90H55.5818C55.4111 88.1653 55.1124 87.0133 54.6858 86.544C54.3018 86.0747 53.6404 86.1387 52.7018 86.736C51.1231 87.8453 49.4378 88.8267 47.6458 89.68C45.8964 90.4907 43.6351 90.896 40.8618 90.896C36.5098 90.896 32.6911 89.9787 29.4058 88.144C26.1204 86.3093 23.5604 83.664 21.7258 80.208C19.9338 76.752 19.0378 72.592 19.0378 67.728C19.0378 62.9493 19.9764 58.768 21.8538 55.184C23.7311 51.6 26.3124 48.8053 29.5978 46.8C32.8831 44.7947 36.6591 43.792 40.9258 43.792Z" fill="#9B9A78"/>
</g>
<defs>
<filter id="filter0_d_8177_42" x="0" y="0" width="65" height="114" filterUnits="userSpaceOnUse" color-interpolation-filters="sRGB">
<feFlood flood-opacity="0" result="BackgroundImageFix"/>
<feColorMatrix in="SourceAlpha" type="matrix" values="0 0 0 0 0 0 0 0 0 0 0 0 0 0 0 0 0 0 127 0" result="hardAlpha"/>
<feOffset dy="4"/>
<feGaussianBlur stdDeviation="2"/>
<feComposite in2="hardAlpha" operator="out"/>
<feColorMatrix type="matrix" values="0 0 0 0 0 0 0 0 0 0 0 0 0 0 0 0 0 0 0.25 0"/>
<feBlend mode="normal" in2="BackgroundImageFix" result="effect1_dropShadow_8177_42"/>
<feBlend mode="normal" in="SourceGraphic" in2="effect1_dropShadow_8177_42" result="shape"/>
</filter>
</defs>
</svg>
